PathFileType	4	(X/Y/Z)	OpenSim_static_markers.trc
DataRate	CameraRate	NumFrames	NumMarkers	Units	OrigDataRate	OrigDataStartFrame	OrigNumFrames
100	100	7	39	m	100	1	7
Frame#	Time	APEX	L1MT	L2MT	L5MT	LASI	LCAL	LGTR	LLEP	LLML	LMEP	LMML	LPS1	LPS2	LSH1	LSH2	LSH3	LTH1	LTH2	LTH3	LTTB	R1MT	R2MT	R5MT	RASI	RCAL	RGTR	RLEP	RLML	RMEP	RMML	RPS1	RPS2	RSH1	RSH2	RSH3	RTH1	RTH2	RTH3	RTTB
				X1	Y1	Z1	X2	Y2	Z2	X3	Y3	Z3	X4	Y4	Z4	X5	Y5	Z5	X6	Y6	Z6	X7	Y7	Z7	X8	Y8	Z8	X9	Y9	Z9	X10	Y10	Z10	X11	Y11	Z11	X12	Y12	Z12	X13	Y13	Z13	X14	Y14	Z14	X15	Y15	Z15	X16	Y16	Z16	X17	Y17	Z17	X18	Y18	Z18	X19	Y19	Z19	X20	Y20	Z20	X21	Y21	Z21	X22	Y22	Z22	X23	Y23	Z23	X24	Y24	Z24	X25	Y25	Z25	X26	Y26	Z26	X27	Y27	Z27	X28	Y28	Z28	X29	Y29	Z29	X30	Y30	Z30	X31	Y31	Z31	X32	Y32	Z32	X33	Y33	Z33	X34	Y34	Z34	X35	Y35	Z35	X36	Y36	Z36	X37	Y37	Z37	X38	Y38	Z38	X39		Y39	Z39	

1	0	0.76199600	1.55894400	-0.51226500	0.67265400	0.05485800	-0.61121200	0.67197600	0.06497400	-0.65052600	0.62936600	0.04564300	-0.70025100	0.66919700	0.91650900	-0.61825100	0.46284300	0.06124600	-0.59762800	0.51898900	0.89376600	-0.68622900	0.61994100	0.46366400	-0.66635400	0.54235800	0.11011000	-0.65392600	0.65100500	0.45504300	-0.54374900	0.56693900	0.11270000	-0.57339900	0.46505800	1.02980200	-0.51813000	0.43313900	0.96601300	-0.51867900	0.56945400	0.44124600	-0.66830900	0.54291600	0.34161800	-0.68558900	0.60015200	0.32817100	-0.69140700	0.56017600	0.75050800	-0.70759100	0.57073000	0.64934900	-0.68880300	0.62982700	0.65518900	-0.68364400	0.66942900	0.40538200	-0.62446300	0.72027400	0.05453500	-0.34481400	0.72300000	0.06424500	-0.30109600	0.67387700	0.04754600	-0.25608800	0.63942300	0.93238400	-0.33978000	0.50690300	0.05893600	-0.35807800	0.54871300	0.84588600	-0.28962600	0.62413000	0.47278400	-0.31782400	0.58441700	0.11191600	-0.30314300	0.65949000	0.46242600	-0.43336500	0.61187500	0.11187500	-0.38012700	0.46695300	1.03465300	-0.46864800	0.43302900	0.96512000	-0.45149300	0.63159600	0.43760600	-0.31300000	0.62169300	0.33745600	-0.29091600	0.56231000	0.34487500	-0.28476900	0.62792800	0.77249700	-0.28950100	0.64381500	0.67062100	-0.30382200	0.58594000	0.65951600	-0.29628300	0.67006600	0.40979500	-0.36489100
2	0.01000000	0.76401800	1.55892100	-0.51051400	0.67273000	0.05483000	-0.61112300	0.67200800	0.06496000	-0.65037700	0.62939100	0.04578400	-0.70019800	0.67105700	0.91669200	-0.61686100	0.46296800	0.06143800	-0.59739600	0.52064000	0.89327200	-0.68434800	0.62156200	0.46363600	-0.66541500	0.54253100	0.11040700	-0.65367800	0.65320400	0.45495800	-0.54290300	0.56724800	0.11280200	-0.57315300	0.46758400	1.02982800	-0.51649200	0.43515700	0.96617100	-0.51658500	0.57111600	0.44166500	-0.66720700	0.54407400	0.34218900	-0.68470100	0.60117000	0.32843300	-0.69079800	0.56158300	0.75043300	-0.70568400	0.57243300	0.64928000	-0.68728200	0.63148100	0.65532000	-0.68222500	0.67080600	0.40508900	-0.62371800	0.72033000	0.05448200	-0.34477900	0.72306800	0.06421000	-0.30105700	0.67391700	0.04751000	-0.25601900	0.64191600	0.93272500	-0.33823800	0.50691400	0.05892400	-0.35803400	0.55156700	0.84636800	-0.28727800	0.62653700	0.47255300	-0.31700000	0.58466500	0.11182500	-0.30288900	0.66072500	0.46219900	-0.43274100	0.61194200	0.11181100	-0.38019100	0.46946200	1.03427200	-0.46625800	0.43534000	0.96520800	-0.44934500	0.63351900	0.43719000	-0.31240400	0.62329900	0.33695900	-0.29057400	0.56403900	0.34456500	-0.28380700	0.63031600	0.77237900	-0.28817700	0.64632300	0.67057500	-0.30243800	0.58840000	0.65951900	-0.29477000	0.67114600	0.40932000	-0.36506200
3	0.02000000	0.76594400	1.55895000	-0.50873400	0.67278500	0.05481300	-0.61101400	0.67200700	0.06488500	-0.65024800	0.62942800	0.04588800	-0.70010600	0.67314200	0.91673600	-0.61529600	0.46308200	0.06159900	-0.59721900	0.52223900	0.89342700	-0.68233700	0.62287300	0.46380100	-0.66440800	0.54282300	0.11089600	-0.65320200	0.65511100	0.45466700	-0.54204200	0.56758700	0.11291400	-0.57276200	0.47003800	1.02968000	-0.51476600	0.43722100	0.96632800	-0.51424200	0.57252800	0.44190400	-0.66602900	0.54500800	0.34266100	-0.68379600	0.60211200	0.32879900	-0.69014300	0.56316800	0.75054600	-0.70377500	0.57382200	0.64914500	-0.68580800	0.63307900	0.65527600	-0.68086800	0.67203200	0.40489800	-0.62294500	0.72037600	0.05442500	-0.34474000	0.72309500	0.06414000	-0.30101400	0.67392900	0.04744600	-0.25600400	0.64445400	0.93293700	-0.33678400	0.50690000	0.05888700	-0.35801000	0.55368300	0.84629500	-0.28590900	0.62842800	0.47226200	-0.31622300	0.58479200	0.11174300	-0.30276300	0.66180500	0.46207000	-0.43221000	0.61200900	0.11164600	-0.38032000	0.47200900	1.03444700	-0.46456800	0.43778000	0.96518400	-0.44722600	0.63483900	0.43690800	-0.31169200	0.62462100	0.33650800	-0.29005300	0.56531700	0.34421800	-0.28281300	0.63312900	0.77227100	-0.28690400	0.64892500	0.67048900	-0.30139600	0.59112700	0.65943300	-0.29329100	0.67225100	0.40907900	-0.36473600
4	0.03000000	0.76780400	1.55903000	-0.50694800	0.67282400	0.05482200	-0.61094200	0.67205500	0.06491600	-0.65014500	0.62947100	0.04604100	-0.69997800	0.67488900	0.91668800	-0.61396900	0.46316600	0.06173500	-0.59708900	0.52372900	0.89344700	-0.68026700	0.62409200	0.46379800	-0.66345800	0.54301100	0.11129300	-0.65299800	0.65666100	0.45450600	-0.54114700	0.56776600	0.11297100	-0.57255000	0.47233700	1.02965300	-0.51274500	0.43953200	0.96647000	-0.51213000	0.57376700	0.44228100	-0.66486500	0.54579800	0.34315500	-0.68285000	0.60273000	0.32901500	-0.68943300	0.56461300	0.75073600	-0.70185500	0.57526900	0.64926300	-0.68420800	0.63450500	0.65520000	-0.67940900	0.67306900	0.40458300	-0.62221500	0.72040800	0.05437700	-0.34472100	0.72313500	0.06406400	-0.30097100	0.67393500	0.04741200	-0.25595800	0.64699900	0.93309700	-0.33521300	0.50688300	0.05884200	-0.35800400	0.55619800	0.84618100	-0.28445200	0.62968400	0.47170500	-0.31549400	0.58489100	0.11163000	-0.30271900	0.66256800	0.46192600	-0.43171100	0.61200900	0.11133100	-0.38027800	0.47413500	1.03445500	-0.46266300	0.43972400	0.96523800	-0.44509900	0.63563100	0.43627200	-0.31102000	0.62545200	0.33610900	-0.28944000	0.56619200	0.34386800	-0.28199100	0.63625700	0.77226100	-0.28563900	0.65150000	0.67039200	-0.30060400	0.59385000	0.65934700	-0.29184900	0.67320500	0.40861400	-0.36406800
5	0.04000000	0.76953300	1.55917000	-0.50514100	0.67285700	0.05482100	-0.61087200	0.67210400	0.06496400	-0.65007400	0.62956900	0.04623300	-0.69977000	0.67680700	0.91654000	-0.61242000	0.46324000	0.06186600	-0.59698600	0.52567200	0.89333200	-0.67836900	0.62503900	0.46394000	-0.66249800	0.54305400	0.11146200	-0.65282000	0.65790800	0.45420900	-0.54029100	0.56784600	0.11293500	-0.57228700	0.47415300	1.02992200	-0.51086200	0.44175800	0.96623500	-0.50988700	0.57475000	0.44251100	-0.66368700	0.54648800	0.34366200	-0.68199800	0.60337900	0.32936600	-0.68880800	0.56604700	0.75085400	-0.69984300	0.57655300	0.64924400	-0.68245400	0.63586900	0.65523900	-0.67808300	0.67400500	0.40446700	-0.62133400	0.72046100	0.05431100	-0.34468400	0.72319100	0.06397600	-0.30093000	0.67397100	0.04737400	-0.25590900	0.64926700	0.93317600	-0.33353900	0.50690300	0.05883500	-0.35801400	0.55931800	0.84649200	-0.28194500	0.63061300	0.47140200	-0.31467800	0.58496200	0.11154100	-0.30268100	0.66332700	0.46204500	-0.43116300	0.61210300	0.11126000	-0.38029400	0.47643200	1.03459700	-0.46068100	0.44207500	0.96544600	-0.44290800	0.63652400	0.43580600	-0.31003400	0.62597000	0.33567300	-0.28882300	0.56677000	0.34366700	-0.28141500	0.63918000	0.77222000	-0.28440600	0.65408000	0.67021300	-0.29986300	0.59661800	0.65932800	-0.29025900	0.67441700	0.40839400	-0.36288700
6	0.05000000	0.77125800	1.55933500	-0.50342100	0.67288300	0.05479800	-0.61080400	0.67211200	0.06498400	-0.65000600	0.62958100	0.04632200	-0.69969900	0.67880400	0.91657800	-0.61069800	0.46328900	0.06195500	-0.59690300	0.52719300	0.89323600	-0.67657100	0.62602500	0.46416200	-0.66150900	0.54308800	0.11158200	-0.65264600	0.65888700	0.45385600	-0.53943800	0.56793900	0.11295800	-0.57199700	0.47624200	1.02970400	-0.50873600	0.44364400	0.96636000	-0.50782700	0.57567000	0.44275700	-0.66250600	0.54701200	0.34396700	-0.68107400	0.60395300	0.32965900	-0.68811000	0.56742100	0.75103100	-0.69781500	0.57776500	0.64936500	-0.68071300	0.63711900	0.65513500	-0.67669300	0.67482800	0.40428700	-0.62058400	0.72067700	0.05436600	-0.34459300	0.72322300	0.06388000	-0.30090500	0.67402800	0.04723700	-0.25585800	0.65190700	0.93313300	-0.33191000	0.50692800	0.05882400	-0.35800600	0.56180400	0.84624500	-0.28043100	0.63175400	0.47109900	-0.31381600	0.58512500	0.11144100	-0.30254800	0.66404900	0.46202500	-0.43051000	0.61222000	0.11124900	-0.38024500	0.47827200	1.03458100	-0.45878300	0.44441500	0.96551900	-0.44089900	0.63742900	0.43557200	-0.30887200	0.62642900	0.33532600	-0.28807400	0.56716500	0.34352000	-0.28099900	0.64214300	0.77197000	-0.28349000	0.65657200	0.67014600	-0.29900300	0.59912300	0.65918400	-0.28900500	0.67538000	0.40810500	-0.36182600
7	0.06000000	0.77295900	1.55953600	-0.50171100	0.67289200	0.05478500	-0.61075000	0.67212900	0.06500500	-0.64994900	0.62958800	0.04638800	-0.69965900	0.68069200	0.91642000	-0.60908900	0.46332300	0.06200200	-0.59684300	0.52916600	0.89348800	-0.67457800	0.62673900	0.46424500	-0.66042300	0.54302200	0.11194000	-0.65267300	0.65964300	0.45351100	-0.53843700	0.56804900	0.11294100	-0.57184000	0.47831000	1.02958500	-0.50677700	0.44538100	0.96645200	-0.50597200	0.57637500	0.44298400	-0.66148100	0.54753700	0.34430200	-0.68022300	0.60440800	0.32986200	-0.68742900	0.56881700	0.75124100	-0.69591600	0.57892000	0.64942000	-0.67896800	0.63843100	0.65505700	-0.67533900	0.67562000	0.40421900	-0.61977400	0.72080200	0.05431800	-0.34455000	0.72329200	0.06376000	-0.30086400	0.67407000	0.04714400	-0.25579800	0.65409100	0.93307400	-0.33017300	0.50695600	0.05885800	-0.35800200	0.56395600	0.84594600	-0.27913700	0.63310800	0.47080900	-0.31298800	0.58523900	0.11138300	-0.30247800	0.66477100	0.46183900	-0.42967000	0.61233100	0.11129200	-0.38011600	0.48034900	1.03469800	-0.45669700	0.44620000	0.96562900	-0.43868700	0.63801300	0.43527200	-0.30808600	0.62679100	0.33507800	-0.28725200	0.56752700	0.34344400	-0.28063200	0.64483200	0.77188100	-0.28235700	0.65889100	0.66983300	-0.29814400	0.60132200	0.65915700	-0.28765400	0.67648900	0.40788700	-0.36076600
